# xmcd
#
# Track frame offsets:
#	150
#	61189
#	122670
#
# Disc length: 2472 seconds
#
# Revision: 1
# Processed by: cddbd v1.5PL3 Copyright (c) Steve Scherf et al.
# Submitted via: CDex 1.50Beta5
#
DISCID=1f09a603
DTITLE=Various Artist - 落語の楽しみ1
DYEAR=1900
DGENRE=World
TTITLE0=柳亭痴楽/ラブレター
TTITLE1=三笑亭夢楽/寄り合い酒
TTITLE2=春風亭柳好/かぼちゃ屋
EXTD=
EXTT0=
EXTT1=
EXTT2=
PLAYORDER=
